<?xml version="1.0" standalone="no"?>
<!DOCTYPE svg PUBLIC "-//W3C//DTD SVG 20010904//EN"
 "http://www.w3.org/TR/2001/REC-SVG-20010904/DTD/svg10.dtd">
<svg version="1.0" xmlns="http://www.w3.org/2000/svg"
 width="492.000000pt" height="374.000000pt" viewBox="0 0 492.000000 374.000000"
 preserveAspectRatio="xMidYMid meet">

<g transform="translate(0.000000,374.000000) scale(0.100000,-0.100000)"
fill="#000000" stroke="none">
<path d="M2181 3423 c-16 -16 -111 -176 -210 -356 -194 -352 -201 -371 -160
-428 l20 -29 342 -1 c327 -1 664 -13 490 -17 l-73 -2 0 -590 c0 -335 4 -590 9
-590 5 0 11 -9 14 -20 6 -22 -11 -23 -31 0 -11 13 -11 11 -2 -7 10 -21 22 -28
43 -24 5 1 6 -3 2 -9 -3 -6 -12 -8 -18 -4 -7 3 -3 -2 7 -10 11 -9 17 -16 13
-16 -19 0 18 -43 49 -57 31 -15 37 -15 67 -1 31 15 53 48 172 263 12 22 73
130 134 240 96 172 112 205 108 235 -3 21 -40 92 -93 178 -49 79 -94 151 -99
160 -6 9 -22 35 -35 57 -14 23 -30 50 -37 60 -7 11 -28 46 -47 78 -20 32 -36
63 -36 69 0 19 -481 812 -504 830 -33 27 -90 23 -125 -9z m456 -849 c-3 -3
-12 -4 -19 -1 -8 3 -5 6 6 6 11 1 17 -2 13 -5z"/>
<path d="M2145 847 c-66 -22 -101 -44 -138 -88 -121 -140 -72 -365 95 -440 80
-36 202 -34 279 3 31 16 64 37 75 49 19 21 19 21 -31 65 -48 43 -49 43 -70 25
-51 -47 -135 -56 -193 -21 -37 23 -72 88 -72 135 0 47 35 112 72 135 58 35
142 26 193 -21 21 -18 22 -18 70 25 50 44 50 44 31 65 -11 12 -44 33 -73 48
-65 31 -175 40 -238 20z"/>
<path d="M4373 850 c-55 -13 -119 -57 -137 -94 -22 -46 -20 -111 4 -150 22
-37 83 -68 180 -91 107 -27 136 -57 85 -91 -34 -22 -133 -15 -199 14 l-47 21
-24 -51 c-29 -62 -25 -69 53 -94 83 -28 232 -26 287 3 96 51 132 144 85 221
-27 44 -70 68 -160 88 -95 22 -130 39 -130 64 0 49 99 66 190 31 l50 -19 20
45 c26 59 25 68 -7 82 -73 29 -180 38 -250 21z"/>
<path d="M230 790 l0 -60 85 0 85 0 0 -215 0 -215 80 0 80 0 0 215 0 215 80 0
80 0 0 60 0 60 -245 0 -245 0 0 -60z"/>
<path d="M790 576 l0 -276 75 0 75 0 0 75 0 75 43 0 c41 0 43 -2 92 -75 l50
-74 83 -1 83 0 -55 79 c-31 43 -56 83 -56 88 0 5 14 20 31 32 17 13 39 42 50
64 45 100 6 206 -96 260 -35 19 -61 22 -207 25 l-168 4 0 -276z m309 130 c15
-14 21 -31 21 -62 0 -56 -23 -72 -114 -81 l-66 -6 0 88 0 87 69 -4 c50 -2 75
-9 90 -22z"/>
<path d="M1487 723 c-31 -71 -85 -194 -121 -275 l-65 -148 78 0 78 0 20 53 20
52 119 3 119 3 20 -53 21 -53 78 -3 c62 -2 77 0 74 11 -2 8 -55 131 -118 275
l-115 261 -76 1 -76 0 -56 -127z m171 -123 l30 -75 -65 -3 c-36 -2 -68 -1 -70
2 -3 3 9 42 27 86 18 45 36 78 41 73 4 -4 21 -42 37 -83z"/>
<path d="M2550 575 l0 -275 75 0 75 0 0 73 c0 68 2 75 29 101 l29 28 78 -101
79 -101 89 0 c69 0 86 3 79 12 -5 7 -55 71 -110 143 -54 72 -103 136 -107 143
-5 8 30 53 104 132 l112 120 -83 0 -84 0 -107 -112 -107 -113 0 113 -1 112
-75 0 -75 0 0 -275z"/>
<path d="M3140 575 l0 -275 220 0 220 0 0 60 0 60 -145 0 -145 0 0 50 0 50
120 0 120 0 0 60 0 60 -120 0 -120 0 0 45 0 45 135 0 135 0 0 60 0 60 -210 0
-210 0 0 -275z"/>
<path d="M3670 576 l0 -276 75 0 75 0 0 75 0 75 43 0 c41 0 43 -2 92 -75 l50
-74 83 -1 83 0 -55 79 c-31 43 -56 83 -56 88 0 5 14 20 31 32 17 13 39 42 50
64 45 100 6 206 -96 260 -35 19 -61 22 -207 25 l-168 4 0 -276z m309 130 c15
-14 21 -31 21 -62 0 -56 -23 -72 -114 -81 l-66 -6 0 88 0 87 69 -4 c50 -2 75
-9 90 -22z"/>
</g>
</svg>
